<?xml version="1.0" encoding="UTF-8" standalone="no"?>
<!DOCTYPE svg PUBLIC "-//W3C//DTD SVG 20010904//EN"
"http://www.w3.org/TR/2001/REC-SVG-20010904/DTD/svg10.dtd">
<!-- Created with Inkscape (http://www.inkscape.org/) -->
<svg
   id="svg1"
   sodipodi:version="0.32"
   inkscape:version="0.39"
   width="210mm"
   height="297mm"
   sodipodi:docbase="/mnt/hdb1/home/ll/src/cvs/dino"
   sodipodi:docname="midisaurus.svg"
   xmlns="http://www.w3.org/2000/svg"
   xmlns:cc="http://web.resource.org/cc/"
   xmlns:inkscape="http://www.inkscape.org/namespaces/inkscape"
   xmlns:sodipodi="http://sodipodi.sourceforge.net/DTD/sodipodi-0.dtd"
   xmlns:rdf="http://www.w3.org/1999/02/22-rdf-syntax-ns#"
   xmlns:xml="http://www.w3.org/XML/1998/namespace"
   xmlns:dc="http://purl.org/dc/elements/1.1/"
   xmlns:xlink="http://www.w3.org/1999/xlink">
  <defs
     id="defs3">
    <linearGradient
       id="linearGradient9686">
      <stop
         style="stop-color:#ffa000;stop-opacity:1.0000000;"
         offset="0.0000000"
         id="stop9687" />
      <stop
         style="stop-color:#ffff00;stop-opacity:1.0000000;"
         offset="1.0000000"
         id="stop9688" />
    </linearGradient>
    <linearGradient
       inkscape:collect="always"
       xlink:href="#linearGradient9686"
       id="linearGradient7818"
       x1="0.63358778"
       y1="0.75000000"
       x2="0.42748091"
       y2="0.23214285" />
  </defs>
  <sodipodi:namedview
     id="base"
     pagecolor="#ffffff"
     bordercolor="#666666"
     borderopacity="1.0"
     inkscape:pageopacity="0.0"
     inkscape:pageshadow="2"
     inkscape:zoom="2.8284271"
     inkscape:cx="173.34852"
     inkscape:cy="418.70825"
     inkscape:window-width="958"
     inkscape:window-height="736"
     inkscape:window-x="-1"
     inkscape:window-y="-1"
     showguides="true"
     inkscape:guide-bbox="true" />
  <metadata
     id="metadata4">
    <rdf:RDF
       id="RDF5">
      <cc:Work
         rdf:about=""
         id="Work6">
        <dc:format
           id="format7">image/svg+xml</dc:format>
        <dc:type
           id="type9"
           rdf:resource="http://purl.org/dc/dcmitype/StillImage" />
      </cc:Work>
    </rdf:RDF>
  </metadata>
  <path
     style="fill:#f6f6f6;fill-opacity:1.0000000;fill-rule:evenodd;stroke:#000000;stroke-width:1.0000000pt;stroke-linecap:butt;stroke-linejoin:round;stroke-opacity:1.0000000;"
     d="M 351.56465,598.70899 C 352.66951,590.23844 356.01313,572.82646 356.64699,572.85540 C 357.43049,572.89118 354.87922,590.68038 354.87922,599.37190 C 353.77436,599.15093 352.66951,598.92996 351.56465,598.70899 z "
     id="path5926"
     sodipodi:nodetypes="cscc" />
  <path
     style="fill:#f6f6f6;fill-opacity:1.0000000;fill-rule:evenodd;stroke:#000000;stroke-width:1.0000000pt;stroke-linecap:butt;stroke-linejoin:round;stroke-opacity:1.0000000;"
     d="M 366.14873,603.34938 C 367.58504,595.65223 371.04051,584.31000 372.00447,584.34588 C 372.77930,584.37472 369.50012,596.09417 369.02135,604.01229 C 368.06381,603.79132 367.10627,603.57035 366.14873,603.34938 z "
     id="path5927"
     sodipodi:nodetypes="cscc" />
  <path
     transform="matrix(0.683449,-0.729999,0.729999,0.683449,0.000000,0.000000)"
     style="fill:#ffffff;fill-opacity:1.0000000;fill-rule:evenodd;stroke:#000000;stroke-width:1.2499993;stroke-linecap:butt;stroke-linejoin:miter;stroke-miterlimit:4.0000000;stroke-opacity:1.0000000;"
     d="M -310.17671,459.25604 C -312.48326,459.25604 -313.37230,459.33544 -314.34015,461.46575 L -315.05085,467.79790 C -315.05085,469.02208 -312.48326,476.90974 -310.17671,476.90974 C -307.87017,476.90974 -305.71825,471.71289 -305.71825,470.48871 L -306.01328,461.46575 C -306.01328,460.24157 -307.87017,459.25604 -310.17671,459.25604 z "
     id="rect3434"
     sodipodi:nodetypes="ccccccc" />
  <path
     transform="matrix(0.706341,-0.707871,0.720781,0.693163,0.000000,0.000000)"
     style="fill:#ffffff;fill-opacity:1.0000000;fill-rule:evenodd;stroke:#000000;stroke-width:1.2501066;stroke-linecap:butt;stroke-linejoin:miter;stroke-miterlimit:4.0000000;stroke-opacity:1.0000000;"
     d="M -293.27742,464.06650 C -295.72551,464.06650 -297.70856,465.67688 -297.57978,468.30739 L -297.77630,479.50588 C -297.77630,480.72974 -295.72551,485.62209 -293.27742,485.62209 L -292.28410,485.62209 C -289.83601,485.62209 -287.16083,480.57431 -287.16083,479.35045 L -287.11140,467.68296 C -287.38727,464.58345 -289.83601,464.06650 -292.28410,464.06650 L -293.27742,464.06650 z "
     id="rect3433"
     sodipodi:nodetypes="ccccccccc" />
  <path
     transform="matrix(0.656752,-0.754107,0.754107,0.656752,0.000000,0.000000)"
     style="fill:#f6f6f6;fill-opacity:1.0000000;fill-rule:evenodd;stroke:#000000;stroke-width:1.2499996;stroke-linecap:butt;stroke-linejoin:miter;stroke-miterlimit:4.0000000;stroke-opacity:1.0000000;"
     d="M -303.18696,438.73560 C -305.63532,438.73560 -307.91814,440.68515 -307.91814,443.13351 L -307.46638,459.23783 C -307.46638,461.68618 -306.59211,470.47290 -304.14375,470.47290 L -300.03632,470.47290 C -297.58796,470.47290 -294.52129,462.41546 -294.52129,459.96711 L -294.99338,443.44527 C -294.99338,440.99691 -297.42132,438.83770 -299.86968,438.83770 L -303.18696,438.73560 z "
     id="rect3432"
     sodipodi:nodetypes="ccccccccc" />
  <path
     transform="matrix(0.902681,0.430310,-0.430310,0.902681,0.000000,0.000000)"
     style="fill:#f6f6f6;fill-opacity:1.0000000;fill-rule:evenodd;stroke:#000000;stroke-width:1.2500002;stroke-linecap:butt;stroke-linejoin:miter;stroke-miterlimit:4.0000000;stroke-opacity:1.0000000;"
     d="M 555.87471,378.62826 C 553.42635,378.62826 553.24354,379.45403 552.75646,381.29872 L 551.28156,390.15973 C 551.28156,392.11841 553.95540,393.11545 556.40376,393.11545 L 560.21661,392.83019 C 562.66496,392.83019 563.82886,392.12771 563.82886,390.16903 L 562.04510,381.14787 C 561.45059,379.21294 561.04020,378.79363 558.59514,378.61897 L 555.87471,378.62826 z "
     id="rect3429"
     sodipodi:nodetypes="ccccccccc" />
  <path
     transform="matrix(0.813406,0.581696,-0.581696,0.813406,0.000000,0.000000)"
     style="fill:#f6f6f6;fill-opacity:1.0000000;fill-rule:evenodd;stroke:#000000;stroke-width:1.2500004;stroke-linecap:butt;stroke-linejoin:miter;stroke-miterlimit:4.0000000;stroke-opacity:1.0000000;"
     d="M 598.45292,272.97410 C 596.00457,272.97410 594.70126,274.73928 594.70126,277.18764 L 595.90395,288.21309 C 595.90395,290.66145 595.74749,300.67385 598.19584,300.67385 L 603.94589,300.67385 C 606.39424,300.67385 607.89807,290.07210 607.89807,287.62374 L 607.69754,277.23991 C 607.69754,274.79155 605.80382,273.30851 603.35547,273.30851 L 598.45292,272.97410 z "
     id="rect3428"
     sodipodi:nodetypes="ccccccccc" />
  <path
     transform="matrix(0.621557,0.783369,-0.783369,0.621557,0.000000,0.000000)"
     style="fill:#f6f6f6;fill-opacity:1.0000000;fill-rule:evenodd;stroke:#000000;stroke-width:1.2499999;stroke-linecap:butt;stroke-linejoin:miter;stroke-miterlimit:4.0000000;stroke-opacity:1.0000000;"
     d="M 634.70612,95.281262 C 632.25776,95.281262 628.42401,97.466856 628.42401,99.915214 L 628.50857,116.13156 C 628.50857,118.57992 630.39507,125.27921 632.84343,125.27921 L 641.55168,125.27921 C 644.00004,125.27921 646.08574,117.47548 646.08574,115.02712 L 645.41604,99.192728 C 644.24008,96.093396 642.62090,95.811921 638.99659,95.160947 L 634.70612,95.281262 z "
     id="rect3427"
     sodipodi:nodetypes="ccccccccc" />
  <path
     transform="matrix(0.485511,0.874230,-0.874230,0.485511,0.000000,0.000000)"
     style="fill:#f6f6f6;fill-opacity:1.0000000;fill-rule:evenodd;stroke:#000000;stroke-width:1.2500006;stroke-linecap:butt;stroke-linejoin:miter;stroke-miterlimit:4.0000000;stroke-opacity:1.0000000;"
     d="M 622.64993,-11.749313 C 620.20157,-11.749313 616.85687,-10.035599 616.85687,-7.5872442 L 615.28936,12.753031 C 615.28936,15.201385 617.32561,22.516621 619.77397,22.516621 L 630.59521,22.516621 C 633.04357,22.516621 635.16400,14.815026 635.16400,12.366672 L 634.07012,-8.1878284 C 634.07012,-10.636183 631.00449,-12.456838 627.54746,-12.005972 L 622.64993,-11.749313 z "
     id="rect3426"
     sodipodi:nodetypes="ccccccccc" />
  <path
     transform="matrix(0.491760,0.870731,-0.870731,0.491760,0.000000,0.000000)"
     style="fill:#f6f6f6;fill-opacity:1.0000000;fill-rule:evenodd;stroke:#000000;stroke-width:1.2499998;stroke-linecap:butt;stroke-linejoin:miter;stroke-miterlimit:4.0000000;stroke-opacity:1.0000000;"
     d="M 598.48137,-8.7519051 C 596.08671,-8.3741506 592.43040,-5.3208228 592.37152,-1.3393500 C 592.30023,3.4817181 592.80294,10.813879 593.01865,16.890494 C 593.01865,19.338851 594.48357,28.560831 596.93193,28.560831 L 608.59839,28.560831 C 611.04674,28.560831 611.71510,21.906209 611.71510,19.457852 L 613.06575,-2.3093350 C 613.06575,-4.7576928 608.91334,-8.3138536 606.50475,-8.6560345 C 602.74476,-9.1902041 601.45178,-9.2204828 598.48137,-8.7519051 z "
     id="rect3424"
     sodipodi:nodetypes="cscccccss" />
  <path
     transform="matrix(0.682919,0.730494,-0.730494,0.682919,0.000000,0.000000)"
     style="fill:#f6f6f6;fill-opacity:1.0000000;fill-rule:evenodd;stroke:#000000;stroke-width:1.2500001;stroke-linecap:butt;stroke-linejoin:miter;stroke-miterlimit:4.0000000;stroke-opacity:1.0000000;"
     d="M 557.61007,125.38022 C 554.69323,125.39599 551.86591,127.47404 551.86591,129.92240 L 551.65566,155.40733 C 551.65566,157.85569 553.83697,166.07321 556.28532,166.07321 L 567.11189,166.07321 C 569.56025,166.07321 571.04027,158.80317 571.04027,156.35481 L 573.77014,131.41043 C 573.70706,127.08813 569.56025,125.50298 567.11189,125.50298 L 557.61007,125.38022 z "
     id="rect3423"
     sodipodi:nodetypes="ccccccccc" />
  <path
     transform="matrix(0.854576,0.519326,-0.530624,0.847607,0.000000,0.000000)"
     style="fill:#f6f6f6;fill-opacity:1.0000000;fill-rule:evenodd;stroke:#000000;stroke-width:1.2500554;stroke-linecap:butt;stroke-linejoin:miter;stroke-miterlimit:4.0000000;stroke-opacity:1.0000000;"
     d="M 477.24072,262.89505 C 473.33974,262.22100 470.61961,264.65094 470.61961,267.09908 L 476.09275,297.89319 C 476.09275,300.34132 474.79257,313.70157 477.24072,313.70157 L 489.98003,313.70157 C 492.42817,313.70157 492.28218,299.99270 492.28218,297.54457 L 495.94631,268.97307 C 495.94631,266.52493 493.88100,263.56910 491.43286,263.56910 L 477.24072,262.89505 z "
     id="rect3422"
     sodipodi:nodetypes="ccccccccc" />
  <path
     transform="matrix(0.985257,0.171083,-0.171083,0.985257,0.000000,0.000000)"
     style="fill:#f6f6f6;fill-opacity:1.0000000;fill-rule:evenodd;stroke:#000000;stroke-width:1.2499995;stroke-linecap:butt;stroke-linejoin:miter;stroke-miterlimit:4.0000000;stroke-opacity:1.0000000;"
     d="M 308.60811,407.64331 C 306.15975,407.64331 303.39345,410.20101 303.39345,412.64937 L 303.71707,442.96064 C 303.71707,445.40900 306.15975,464.21188 308.60811,464.21188 L 323.63414,464.21188 C 326.08249,464.21188 326.90119,453.02127 326.90119,450.57291 L 331.85761,415.88773 C 332.71024,410.59998 326.51791,407.56770 324.06956,407.56770 L 308.60811,407.64331 z "
     id="rect3421"
     sodipodi:nodetypes="ccccccccc" />
  <path
     transform="matrix(0.706620,-0.707593,0.707593,0.706620,0.000000,0.000000)"
     style="fill:#f6f6f6;fill-opacity:1.0000000;fill-rule:evenodd;stroke:#000000;stroke-width:1.2500002;stroke-linecap:butt;stroke-linejoin:miter;stroke-miterlimit:4.0000000;stroke-opacity:1.0000000;"
     d="M -257.04308,452.03757 C -259.49143,452.03757 -261.77693,456.82091 -261.77693,459.26926 L -261.14504,479.27153 C -261.14504,481.71988 -259.49143,490.87822 -257.04308,490.87822 L -249.99603,490.87822 C -247.54767,490.87822 -245.57231,482.65716 -245.57231,480.20881 L -245.89105,459.26926 C -245.89105,456.82091 -247.39196,452.81893 -249.99603,452.03757 C -251.87597,451.56914 -254.38092,451.10029 -257.04308,452.03757 z "
     id="rect3420"
     sodipodi:nodetypes="ccccccccc" />
  <path
     transform="matrix(0.795673,-0.605726,0.605726,0.795673,0.000000,0.000000)"
     style="fill:#f6f6f6;fill-opacity:1.0000000;fill-rule:evenodd;stroke:#000000;stroke-width:1.2500004;stroke-linecap:butt;stroke-linejoin:miter;stroke-miterlimit:4.0000000;stroke-opacity:1.0000000;"
     d="M -175.27940,475.13357 C -177.72776,475.13357 -179.96651,477.45627 -179.96651,479.90463 L -174.61259,507.62988 C -172.23505,511.33277 -175.25041,518.39470 -172.80205,518.39470 L -164.49516,518.39470 C -162.04681,518.39470 -158.62161,510.86547 -158.62161,508.41712 L -158.30168,478.34604 C -158.30168,475.89768 -159.83716,474.81365 -162.28551,474.81365 L -175.27940,475.13357 z "
     id="rect3419"
     sodipodi:nodetypes="ccccccccc" />
  <path
     transform="matrix(0.944445,-0.328670,0.328670,0.944445,0.000000,0.000000)"
     style="fill:#f6f6f6;fill-opacity:1.0000000;fill-rule:evenodd;stroke:#000000;stroke-width:1.2499998;stroke-linecap:butt;stroke-linejoin:miter;stroke-miterlimit:4.0000000;stroke-opacity:1.0000000;"
     d="M 8.4257031,493.57019 C 3.5998902,493.67870 3.2800172,497.62820 3.2800172,500.07656 L 7.8913728,530.32648 C 7.8913728,532.77484 7.5200182,542.82156 9.9683776,542.82156 L 21.634840,542.82156 C 24.083199,542.82156 26.037593,531.48593 26.037593,529.03757 L 28.450084,496.08465 C 28.450084,493.63629 26.605905,492.64527 24.157546,492.64527 L 8.4257031,493.57019 z "
     id="rect3418"
     sodipodi:nodetypes="ccccccccc" />
  <path
     transform="matrix(0.999065,-4.324017e-2,4.324017e-2,0.999065,0.000000,0.000000)"
     style="fill:#f6f6f6;fill-opacity:1.0000000;fill-rule:evenodd;stroke:#000000;stroke-width:1.2499996;stroke-linecap:butt;stroke-linejoin:miter;stroke-miterlimit:4.0000000;stroke-opacity:1.0000000;"
     d="M 181.49385,459.50839 C 179.04549,459.50839 175.32743,460.96148 175.32743,463.40984 L 178.95319,498.91053 C 178.95319,501.35888 179.04549,516.07693 181.49385,516.07693 L 196.51987,516.07693 C 198.96823,516.07693 199.70825,501.66664 199.70825,499.21829 L 203.60757,463.60094 C 203.60757,461.15258 200.75345,459.14330 198.30509,459.14330 L 181.49385,459.50839 z "
     id="rect3417"
     sodipodi:nodetypes="ccccccccc" />
  <path
     style="fill:#c9c900;fill-opacity:1.0000000;fill-rule:evenodd;stroke:#000000;stroke-width:1.2500000;stroke-linecap:butt;stroke-linejoin:miter;stroke-miterlimit:4.0000000;stroke-opacity:1.0000000;"
     d="M 214.34174,535.29035 L 208.59650,576.83287 C 209.73818,581.76789 209.69247,584.71774 211.00591,589.60667 C 211.67502,592.09722 213.36313,597.12847 213.85989,599.45634 C 214.24964,601.28280 211.01981,601.16417 212.13202,605.50317 C 212.51137,606.98307 232.58799,606.58400 232.56629,605.40514 C 232.47750,600.58096 231.43016,594.91565 230.69359,590.64355 C 229.95702,586.37144 228.76229,582.76681 227.60000,578.60063 C 227.21067,577.20509 234.49554,565.61950 235.99690,558.71326 C 237.44182,552.06662 236.29152,544.86576 236.43883,537.94201"
     id="path2173"
     sodipodi:nodetypes="ccsssscsss" />
  <path
     style="fill:#c9c900;fill-opacity:1.0000000;fill-rule:evenodd;stroke:#000000;stroke-width:1.2500000;stroke-linecap:butt;stroke-linejoin:miter;stroke-miterlimit:4.0000000;stroke-opacity:1.0000000;"
     d="M 143.18913,570.64569 C 140.90576,575.17559 134.91083,579.78868 135.23417,580.81035 C 135.74352,582.41976 138.77747,596.48295 140.15077,603.62559 C 140.35459,604.68569 126.54381,605.46474 126.22109,604.35946 C 125.51747,601.94961 127.65172,601.13529 127.45290,600.09648 C 125.77655,591.33759 123.32015,583.18579 122.41786,578.60064 L 130.37282,568.87793"
     id="path928"
     sodipodi:nodetypes="csssscc" />
  <path
     style="fill:#c9c900;fill-opacity:1.0000000;fill-rule:evenodd;stroke:#000000;stroke-width:1.2500000;stroke-linecap:butt;stroke-linejoin:miter;stroke-opacity:1.0000000;stroke-miterlimit:4.0000000;stroke-dasharray:none;"
     d="M 386.25000,609.86218 C 386.55215,607.62120 355.31250,597.88301 339.84375,591.89343 C 309.96835,580.32552 304.17127,564.75648 293.43750,548.92468 C 282.17753,532.31676 274.22408,513.18577 259.53125,502.20593 C 245.36991,491.62327 223.83025,483.70548 206.87500,484.23718 C 193.93442,484.64298 180.86510,496.30120 169.84375,505.01843 C 150.96926,519.94703 136.38859,542.15432 117.18750,556.05856 C 113.19429,558.95019 110.95106,560.93814 104.83903,561.77007 C 98.726993,562.60199 92.723635,561.83594 87.397367,564.96481 C 81.537208,568.40732 73.955208,580.18823 78.750000,587.36218 C 81.370183,591.28249 92.148976,587.46735 98.151808,584.98932 C 105.90758,581.78765 111.67560,581.05039 118.43750,579.08093 C 141.55955,572.34642 166.93004,584.13309 190.62500,582.04968 C 206.61754,580.64351 232.32995,566.45609 245.45495,565.51859 C 258.57995,564.58109 259.60861,568.28054 269.37500,576.42468 C 277.84302,583.48611 285.20833,588.56010 298.75000,593.61218 C 312.29167,598.66426 332.85668,605.17856 350.62500,606.73718 C 362.50000,607.77884 385.92715,612.25662 386.25000,609.86218 z "
     id="path924"
     sodipodi:nodetypes="csssssssssssssssss" />
  <path
     style="fill:#c9c900;fill-opacity:1.0000000;fill-rule:evenodd;stroke:#000000;stroke-width:1.2500000;stroke-linecap:butt;stroke-linejoin:miter;stroke-opacity:1.0000000;stroke-miterlimit:4.0000000;stroke-dasharray:none;"
     d="M 152.91184,573.73928 C 152.69087,575.32291 153.04926,576.78674 153.57476,578.15870 C 155.71120,583.73648 156.70518,583.97760 159.09903,587.88142 C 155.51882,591.63793 147.23406,603.38023 144.49120,607.11969 C 144.03755,607.73817 140.83136,608.01730 139.90070,612.19770 C 139.63136,613.40754 154.15429,613.32084 155.12155,612.24346 C 160.39049,606.37461 165.00904,602.75183 169.92009,596.61302 C 173.25862,592.43986 175.66967,587.55105 178.54446,583.02006 C 176.66621,576.64873 176.32124,573.38646 169.92660,565.56336 C 168.55914,563.89043 166.53838,562.76439 164.84427,561.36491"
     id="path926"
     sodipodi:nodetypes="cscsssscss" />
  <path
     style="fill:#c9c900;fill-opacity:1.0000000;fill-rule:evenodd;stroke:#000000;stroke-width:1.2500000;stroke-linecap:butt;stroke-linejoin:miter;stroke-opacity:1.0000000;stroke-miterlimit:4.0000000;stroke-dasharray:none;"
     d="M 273.22723,543.55780 C 275.01287,549.21043 276.02880,549.07745 275.77165,559.26569 C 275.61291,565.55490 271.46442,569.02963 270.46834,574.84414 C 269.30976,581.60723 279.63433,591.07478 277.53941,595.39443 C 275.26325,600.08781 268.45578,607.07839 260.74562,613.51404 C 259.78647,614.31464 240.78749,614.11982 241.09492,613.36239 C 243.92478,606.39029 245.58564,609.09077 247.74855,606.49544 C 250.82427,602.80480 254.70576,597.74143 258.53592,594.06860 C 253.08530,586.26096 244.87141,579.34418 242.18407,570.64569 C 239.27348,561.22457 238.82510,552.85261 240.85825,543.24530 C 242.12113,537.27776 244.24646,536.02692 247.48737,533.52258"
     id="path925"
     sodipodi:nodetypes="csszssscsss" />
  <path
     style="fill:#000000;fill-opacity:1.0000000;fill-rule:evenodd;stroke:#000000;stroke-width:1.2500000;stroke-linecap:butt;stroke-linejoin:miter;stroke-miterlimit:4.0000000;stroke-opacity:1.0000000;"
     d="M 125.86946,538.80023 C 125.45095,539.28320 125.43075,539.94648 125.82417,540.28739 L 131.94693,546.49145 C 132.34035,546.83237 137.52458,541.46181 137.13116,541.12090 L 129.90354,535.57975 C 129.51012,535.23883 128.85647,535.35319 128.43796,535.83615 L 125.86946,538.80023 z "
     id="path6543"
     sodipodi:nodetypes="ccccccc" />
  <path
     style="fill:#000000;fill-opacity:1.0000000;fill-rule:evenodd;stroke:#000000;stroke-width:1.2500000;stroke-linecap:butt;stroke-linejoin:miter;stroke-miterlimit:4.0000000;stroke-opacity:1.0000000;"
     d="M 132.32840,527.97413 C 131.79529,528.46551 131.76258,529.29124 132.25507,529.82554 L 139.86702,538.47373 C 140.35950,539.00803 146.21877,532.89257 145.72629,532.35828 L 137.45143,525.03591 C 136.95894,524.50160 136.13330,524.46705 135.60018,524.95843 L 132.32840,527.97413 z "
     id="path6544"
     sodipodi:nodetypes="ccccccc" />
  <path
     style="fill:#000000;fill-opacity:1.0000000;fill-rule:evenodd;stroke:#000000;stroke-width:1.2500000;stroke-linecap:butt;stroke-linejoin:miter;stroke-miterlimit:4.0000000;stroke-opacity:1.0000000;"
     d="M 150.37286,500.73095 C 149.48941,501.47629 149.32057,502.71920 149.99428,503.51776 L 161.13934,517.75941 C 161.81305,518.55796 171.52914,509.52518 170.85543,508.72663 L 158.60551,496.25274 C 157.93179,495.45418 156.67819,495.41134 155.79474,496.15668 L 150.37286,500.73095 z "
     id="path6545"
     sodipodi:nodetypes="ccccccc" />
  <path
     style="fill:#000000;fill-opacity:1.0000000;fill-rule:evenodd;stroke:#000000;stroke-width:1.2500000;stroke-linecap:butt;stroke-linejoin:miter;stroke-miterlimit:4.0000000;stroke-opacity:1.0000000;"
     d="M 163.68295,482.37452 C 162.20590,483.24789 161.65960,485.03813 162.45807,486.38852 L 174.93031,505.64264 C 175.72877,506.99302 190.34701,496.27035 189.54854,494.91997 L 176.85533,477.87556 C 176.05686,476.52517 174.22494,476.14115 172.74789,477.01451 L 163.68295,482.37452 z "
     id="path6546"
     sodipodi:nodetypes="ccccccc" />
  <path
     style="fill:#000000;fill-opacity:1.0000000;fill-rule:evenodd;stroke:#000000;stroke-width:1.2500000;stroke-linecap:butt;stroke-linejoin:miter;stroke-miterlimit:4.0000000;stroke-opacity:1.0000000;"
     d="M 187.98585,465.90346 C 186.08761,466.44672 184.92766,468.17071 185.38505,469.76890 L 194.08086,493.19105 C 194.53826,494.78923 211.05212,489.93580 210.59474,488.33761 L 203.88767,464.47352 C 203.43027,462.87533 201.53387,462.02606 199.63563,462.56933 L 187.98585,465.90346 z "
     id="path6547"
     sodipodi:nodetypes="ccccccc" />
  <path
     style="fill:#000000;fill-opacity:1.0000000;fill-rule:evenodd;stroke:#000000;stroke-width:1.2500000;stroke-linecap:butt;stroke-linejoin:miter;stroke-miterlimit:4.0000000;stroke-opacity:1.0000000;"
     d="M 247.14940,467.48818 C 245.52056,466.71716 244.11086,467.45895 243.43966,468.87691 L 233.89053,493.20475 C 233.21934,494.62270 250.64293,502.57999 251.31412,501.16204 L 263.07295,478.60197 C 263.74414,477.18401 262.97319,475.42177 261.34435,474.65075 L 247.14940,467.48818 z "
     id="path6548"
     sodipodi:nodetypes="ccccccc" />
  <path
     style="fill:#000000;fill-opacity:1.0000000;fill-rule:evenodd;stroke:#000000;stroke-width:1.2500000;stroke-linecap:butt;stroke-linejoin:miter;stroke-miterlimit:4.0000000;stroke-opacity:1.0000000;"
     d="M 274.13074,486.66011 C 272.85303,485.51473 270.02711,484.72767 268.89250,485.99335 L 254.94965,503.37512 C 253.81504,504.64079 266.26919,515.58431 267.40380,514.31865 L 283.33538,499.80950 C 284.46999,498.54381 283.24994,494.83500 281.97224,493.68961 L 274.13074,486.66011 z "
     id="path6549"
     sodipodi:nodetypes="ccccccc" />
  <path
     style="fill:#000000;fill-opacity:1.0000000;fill-rule:evenodd;stroke:#000000;stroke-width:1.2500000;stroke-linecap:butt;stroke-linejoin:miter;stroke-miterlimit:4.0000000;stroke-opacity:1.0000000;"
     d="M 301.29222,530.61802 C 300.48001,529.35633 298.73885,529.04052 297.38828,529.90995 L 282.10809,537.57824 C 280.75752,538.44766 290.22122,552.29260 291.57179,551.42318 L 305.30518,542.20809 C 306.65576,541.33866 307.08915,539.62299 306.27694,538.36130 L 301.29222,530.61802 z "
     id="path6550"
     sodipodi:nodetypes="ccccccc" />
  <path
     style="fill:#000000;fill-opacity:1.0000000;fill-rule:evenodd;stroke:#000000;stroke-width:1.2500000;stroke-linecap:butt;stroke-linejoin:miter;stroke-miterlimit:4.0000000;stroke-opacity:1.0000000;"
     d="M 310.11854,550.65923 C 309.49318,549.58612 308.34111,549.10021 307.53544,549.56973 L 294.92273,556.73407 C 294.11705,557.20358 302.20141,568.32632 303.00708,567.85680 L 313.63105,560.02956 C 314.43672,559.56004 314.58189,558.31814 313.95652,557.24504 L 310.11854,550.65923 z "
     id="path6551"
     sodipodi:nodetypes="ccccccc" />
  <path
     style="fill:#000000;fill-opacity:1.0000000;fill-rule:evenodd;stroke:#000000;stroke-width:1.2500000;stroke-linecap:butt;stroke-linejoin:miter;stroke-miterlimit:4.0000000;stroke-opacity:1.0000000;"
     d="M 319.38634,566.95300 C 318.58045,566.18567 317.47631,566.04615 316.91072,566.64017 L 309.64126,575.34777 C 309.07568,575.94178 316.48909,582.31629 317.05467,581.72228 L 324.76607,574.11954 C 325.33166,573.52552 325.13820,572.42956 324.33230,571.66223 L 319.38634,566.95300 z "
     id="path6552"
     sodipodi:nodetypes="ccccccc" />
  <path
     sodipodi:type="arc"
     style="fill:#ffffff;fill-opacity:1.0000000;fill-rule:evenodd;stroke:#000000;stroke-width:1.0000000pt;stroke-linecap:butt;stroke-linejoin:miter;stroke-opacity:1.0000000;"
     id="path7199"
     sodipodi:cx="94.354561"
     sodipodi:cy="573.96027"
     sodipodi:rx="4.1984463"
     sodipodi:ry="4.1984463"
     d="M 98.553007 573.96027 A 4.1984463 4.1984463 0 1 0 90.156115,573.96027 A 4.1984463 4.1984463 0 1 0 98.553007 573.96027 z"
     transform="translate(-0.441942,-2.651650)" />
  <path
     sodipodi:type="arc"
     style="fill:#000000;fill-opacity:1.0000000;fill-rule:evenodd;stroke:#000000;stroke-width:1.0000000pt;stroke-linecap:butt;stroke-linejoin:miter;stroke-opacity:1.0000000;"
     id="path7821"
     sodipodi:cx="69.163879"
     sodipodi:cy="516.50781"
     sodipodi:rx="2.4306796"
     sodipodi:ry="2.4306796"
     d="M 71.594559 516.50781 A 2.4306796 2.4306796 0 1 0 66.733200,516.50781 A 2.4306796 2.4306796 0 1 0 71.594559 516.50781 z"
     transform="translate(24.30680,55.68466)" />
  <path
     style="fill:#f6f6f6;fill-opacity:1.0000000;fill-rule:evenodd;stroke:#000000;stroke-width:1.0000000pt;stroke-linecap:butt;stroke-linejoin:round;stroke-opacity:1.0000000;"
     d="M 353.44291,599.15093 C 359.22498,592.00620 368.63068,576.46439 369.46328,577.05384 C 369.89179,577.35721 361.43468,593.47934 356.75747,601.36064 C 354.95287,601.25015 353.81119,600.36627 353.44291,599.15093 z "
     id="path5924"
     sodipodi:nodetypes="cscc" />
  <path
     style="fill:#f6f6f6;fill-opacity:1.0000000;fill-rule:evenodd;stroke:#000000;stroke-width:1.0000000pt;stroke-linecap:butt;stroke-linejoin:round;stroke-opacity:1.0000000;"
     d="M 367.47456,604.23326 C 372.48323,597.49365 379.20817,586.83035 379.62796,587.32899 C 380.23043,588.04461 374.84025,598.67216 371.01009,606.00103 C 369.42647,606.22200 368.28478,605.78006 367.47456,604.23326 z "
     id="path5925"
     sodipodi:nodetypes="cscc" />
  <path
     style="fill:#ffffff;fill-opacity:1.0000000;fill-rule:evenodd;stroke:none;stroke-width:1.0000000pt;stroke-linecap:butt;stroke-linejoin:miter;stroke-opacity:1.0000000;"
     d="M 188.43750,473.80749 C 187.69531,471.86739 186.52284,469.63845 187.10938,468.33874 C 187.66867,467.09939 189.98698,466.78926 191.87500,466.19030 C 190.55990,467.01061 188.86227,467.64563 188.32032,468.84655 C 187.71644,470.18469 188.26823,472.08874 188.43750,473.80749 z "
     id="path958"
     sodipodi:nodetypes="cscsc" />
  <path
     style="fill:#ffffff;fill-opacity:1.0000000;fill-rule:evenodd;stroke:none;stroke-width:1.0000000pt;stroke-linecap:butt;stroke-linejoin:miter;stroke-opacity:1.0000000;"
     d="M 165.89388,489.21792 C 164.88110,487.35808 163.51475,486.20605 163.79466,484.63277 C 164.04877,483.20452 169.31893,480.96834 170.86573,479.82665 C 169.90819,481.09724 165.42762,483.65894 165.17573,485.07471 C 164.89360,486.66046 165.47036,487.48698 165.89388,489.21792 z "
     id="path2204"
     sodipodi:nodetypes="cscsc" />
  <path
     style="fill:#ffffff;fill-opacity:1.0000000;fill-rule:evenodd;stroke:none;stroke-width:1.0000000pt;stroke-linecap:butt;stroke-linejoin:miter;stroke-opacity:1.0000000;"
     d="M 152.35942,504.02297 C 151.93589,503.41530 151.09286,502.78930 151.36505,502.25520 C 152.06882,500.87422 154.95081,499.09743 156.35029,497.79002 C 155.35592,499.11584 153.13453,500.95310 152.41466,502.36568 C 152.15858,502.86818 152.34101,503.43371 152.35942,504.02297 z "
     id="path2205"
     sodipodi:nodetypes="cscsc" />
  <path
     style="fill:#ffffff;fill-opacity:1.0000000;fill-rule:evenodd;stroke:none;stroke-width:1.0000000pt;stroke-linecap:butt;stroke-linejoin:miter;stroke-opacity:1.0000000;"
     d="M 134.35029,529.87655 C 134.11090,529.63717 133.49848,529.11499 133.63213,528.88219 C 134.06932,528.12063 135.19734,527.37222 136.00757,526.61724 C 135.45514,527.35381 134.70232,528.11702 134.40553,528.82695 C 134.27602,529.13675 134.36870,529.28730 134.35029,529.87655 z "
     id="path2206"
     sodipodi:nodetypes="cscsc" />
  <path
     style="fill:#ffffff;fill-opacity:1.0000000;fill-rule:evenodd;stroke:none;stroke-width:1.0000000pt;stroke-linecap:butt;stroke-linejoin:miter;stroke-opacity:1.0000000;"
     d="M 127.44495,539.98597 C 127.20096,539.85707 127.13026,539.67771 127.16874,539.59928 C 127.60243,538.71531 128.54556,537.76679 129.32320,537.16860 C 129.50310,537.03022 129.73292,537.16399 130.04136,537.38957 C 129.37844,537.61975 128.89947,538.11713 128.43931,538.57729 C 128.03400,538.98260 127.68893,539.41973 127.44495,539.98597 z "
     id="path2207"
     sodipodi:nodetypes="csscsc" />
  <path
     style="fill:#ffffff;fill-opacity:1.0000000;fill-rule:evenodd;stroke:none;stroke-width:1.0000000pt;stroke-linecap:butt;stroke-linejoin:miter;stroke-opacity:1.0000000;"
     d="M 241.52116,478.50083 C 242.88381,475.40724 243.71927,471.10990 245.60912,469.22005 C 246.37092,468.45825 248.18711,470.10394 249.47611,470.54588 C 247.96615,470.47222 246.86898,469.94893 246.05107,470.87733 C 244.23349,472.94044 243.10479,475.99649 241.52116,478.50083 z "
     id="path2208"
     sodipodi:nodetypes="cscsc" />
  <path
     style="fill:#ffffff;fill-opacity:1.0000000;fill-rule:evenodd;stroke:none;stroke-width:1.0000000pt;stroke-linecap:butt;stroke-linejoin:miter;stroke-opacity:1.0000000;"
     d="M 262.62388,496.50996 C 265.31236,493.34271 267.48198,489.86219 270.35786,487.45015 C 270.90703,486.98956 272.16246,487.59746 272.89902,487.89209 C 272.30977,488.03940 271.58944,487.94975 271.13126,488.33403 C 268.16439,490.82238 265.45967,493.78465 262.62388,496.50996 z "
     id="path2209"
     sodipodi:nodetypes="cscsc" />
  <path
     style="fill:#ffffff;fill-opacity:1.0000000;fill-rule:evenodd;stroke:none;stroke-width:1.0000000pt;stroke-linecap:butt;stroke-linejoin:miter;stroke-opacity:1.0000000;"
     d="M 285.30762,538.26109 C 284.68799,538.44748 290.78877,534.80544 292.34768,534.04383 C 293.27396,533.59130 297.67496,531.15027 299.10353,531.26891 C 300.04908,531.34743 300.42596,532.24808 300.62433,532.70866 C 299.58873,531.88236 299.45497,531.98324 298.93079,532.04085 C 296.77334,532.27795 288.35407,537.34473 285.30762,538.26109 z "
     id="path2211"
     sodipodi:nodetypes="csscss" />
  <path
     style="fill:#ffffff;fill-opacity:1.0000000;fill-rule:evenodd;stroke:none;stroke-width:1.0000000pt;stroke-linecap:butt;stroke-linejoin:miter;stroke-opacity:1.0000000;"
     d="M 299.29688,556.19030 C 302.21355,554.52363 305.16304,552.29100 308.04688,551.19030 C 308.57450,550.98892 309.03646,551.75374 309.47601,552.31167 C 308.59610,551.92339 308.36916,551.81865 307.88589,552.00310 C 304.95770,553.12073 302.18750,554.91426 299.29688,556.19030 z "
     id="path2212"
     sodipodi:nodetypes="cscsc" />
  <path
     style="fill:#ffffff;fill-opacity:1.0000000;fill-rule:evenodd;stroke:none;stroke-width:1.0000000pt;stroke-linecap:butt;stroke-linejoin:miter;stroke-opacity:1.0000000;"
     d="M 314.66252,572.41345 C 315.57430,570.89455 316.67334,569.23464 317.86660,568.32549 C 318.22014,568.05613 318.94133,568.65472 319.49822,569.03417 C 318.74825,568.89911 318.26574,568.89546 317.79517,569.21492 C 316.67576,569.97489 315.77185,571.25613 314.66252,572.41345 z "
     id="path2213"
     sodipodi:nodetypes="cscsc" />
  <path
     style="fill:#008d00;fill-opacity:1.0000000;fill-rule:evenodd;stroke:#000000;stroke-width:1.0000000pt;stroke-linecap:round;stroke-linejoin:round;stroke-opacity:1.0000000;"
     d="M 48.625090,607.40267 C 40.228197,592.37665 30.480970,584.60476 30.480970,584.60476 C 36.336698,585.15719 40.093203,588.02981 44.512620,590.57097 C 45.396504,586.59349 42.855339,580.62728 42.855339,580.62728 C 46.390873,584.75207 48.600582,585.34133 51.583689,592.67019 C 52.320258,588.47175 52.393915,584.71524 52.136116,579.74340 C 55.303365,586.11473 57.807701,591.71265 59.649125,597.86301 C 60.901293,594.91673 62.153462,591.97045 63.405630,589.02418 C 64.252685,591.16023 65.873138,593.51725 65.946795,595.43233 C 67.014821,593.11214 68.966730,591.12340 71.471067,589.46612 C 71.286924,592.44922 70.439869,594.99039 68.598445,597.08961 C 70.587183,597.12644 71.913008,596.50035 73.238833,595.54281 C 72.391778,599.15201 70.218898,600.44100 67.714562,602.39291 C 70.808154,601.32489 73.901746,600.25686 76.995339,599.18884 C 72.097151,602.28243 69.519158,605.48651 66.278252,608.69058 L 63.807359,606.41941 L 61.422444,608.86024 L 58.366764,607.49420 L 55.655946,609.17274 L 54.135957,606.57009 L 50.834799,609.09461 L 48.625090,607.40267 z "
     id="path1589"
     sodipodi:nodetypes="cccccccccccccccccccccc" />
  <path
     style="fill:#008d00;fill-opacity:1.0000000;fill-rule:evenodd;stroke:#000000;stroke-width:1.0000000pt;stroke-linecap:round;stroke-linejoin:round;stroke-opacity:1.0000000;"
     d="M 99.215921,582.52287 C 102.01488,585.98475 103.81948,588.56275 104.96116,591.91414 C 103.56168,590.95660 102.49365,590.22003 100.98368,590.25686 C 102.60413,592.46657 103.34070,594.34482 103.52485,596.77550 C 102.27268,594.93408 101.68342,593.75556 99.878838,593.12948 C 99.768348,595.89162 100.43126,597.88035 99.878838,601.63685 C 98.442524,599.09569 98.111067,596.55452 98.000582,594.45530 C 96.637928,594.89724 96.159158,596.55453 95.680388,597.54890 C 95.201617,594.19750 95.717216,592.61388 96.122329,590.03588 C 95.348931,590.88294 94.354562,591.61951 93.912620,593.12948 C 93.028737,589.07834 93.802135,587.01595 94.133591,585.72695"
     id="path5317"
     sodipodi:nodetypes="ccccccccccc" />
  <path
     style="fill:none;fill-opacity:0.75000000;fill-rule:evenodd;stroke:#000000;stroke-width:1.0000000pt;stroke-linecap:butt;stroke-linejoin:miter;stroke-opacity:1.0000000;"
     d="M 90.078125,587.83093 C 95.468750,585.56531 100.23437,580.79968 100.70312,580.09656 C 101.06856,579.54840 101.43229,578.92468 101.64062,578.29968"
     id="path9064"
     sodipodi:nodetypes="csc" />
  <text
     xml:space="preserve"
     style="font-size:64.000000;font-style:normal;font-variant:normal;font-weight:bold;font-stretch:normal;fill:url(#linearGradient7818);fill-opacity:1.0000000;stroke:#000000;stroke-width:2.5000000;stroke-linecap:round;stroke-linejoin:round;stroke-miterlimit:4.0000000;stroke-opacity:1.0000000;font-family:URW Gothic L;text-anchor:start;writing-mode:lr;"
     x="103.32870"
     y="715.83228"
     id="text7182"
     sodipodi:linespacing="100%"><tspan
       id="tspan7183">dino 0.1</tspan></text>
</svg>
